<svg width="60" height="60" viewBox="0 0 60 60" fill="none" xmlns="http://www.w3.org/2000/svg">
<path d="M26.6316 27.6716C33.4172 27.6716 38.918 22.1487 38.918 15.3358C38.918 8.52293 33.4172 3 26.6316 3C19.846 3 14.3452 8.52293 14.3452 15.3358C14.3452 22.1487 19.846 27.6716 26.6316 27.6716Z" fill="black"/>
<path d="M17.8175 31.7412H35.4373C43.6198 31.7412 50.2548 38.4029 50.2548 46.6182V55.0592C50.2548 56.1319 49.3899 57.0002 48.3215 57.0002H4.93327C3.86488 57.0002 3 56.1319 3 55.0592V46.6182C3 38.4029 9.635 31.7412 17.8175 31.7412Z" fill="black"/>
<path d="M30.7568 21.1211H33.8178" stroke="white" stroke-width="2.7636" stroke-miterlimit="10" stroke-linecap="round"/>
<path d="M44.2599 15.877C45.8583 16.8006 46.9351 18.5374 46.9351 20.5252C46.9351 22.5131 45.8583 24.2455 44.2599 25.1692" stroke="black" stroke-width="2.7636" stroke-miterlimit="10" stroke-linecap="round"/>
<path d="M50.259 9.85352C53.3412 12.3777 55.3042 16.2215 55.3042 20.525C55.3042 24.8284 53.337 28.668 50.259 31.1922" stroke="black" stroke-width="2.7636" stroke-miterlimit="10" stroke-linecap="round"/>
</svg>
